<mxfile host="app.diagrams.net" modified="2021-03-30T14:40:07.455Z" agent="5.0 (Windows NT 10.0; Win64; x64) AppleWebKit/537.36 (KHTML, like Gecko) Chrome/89.0.4389.90 Safari/537.36" etag="KmtWwvC6GBtnsPTShR0g" version="14.5.3" type="github">
  <diagram id="aKsNltxN8iCzFuj265N8" name="Page-1">
    <mxGraphModel dx="2249" dy="762" grid="1" gridSize="10" guides="1" tooltips="1" connect="1" arrows="1" fold="1" page="1" pageScale="1" pageWidth="827" pageHeight="1169" math="0" shadow="0">
      <root>
        <mxCell id="0" />
        <mxCell id="1" parent="0" />
        <mxCell id="Vf2kTsaKdGU_a6W1L_Ca-1" value="&lt;font style=&quot;font-size: 19px&quot;&gt;Android Application&lt;/font&gt;" style="html=1;labelPosition=center;verticalLabelPosition=top;align=center;verticalAlign=bottom;" parent="1" vertex="1">
          <mxGeometry x="60" y="50" width="590" height="960" as="geometry" />
        </mxCell>
        <mxCell id="Vf2kTsaKdGU_a6W1L_Ca-2" value="Actor" style="shape=umlActor;verticalLabelPosition=bottom;verticalAlign=top;html=1;" parent="1" vertex="1">
          <mxGeometry x="-50" y="466.5" width="30" height="80" as="geometry" />
        </mxCell>
        <UserObject label="Health Management" id="Vf2kTsaKdGU_a6W1L_Ca-3">
          <mxCell style="shape=folder;fontStyle=1;spacingTop=10;tabWidth=130;tabHeight=40;tabPosition=left;html=1;labelPosition=center;verticalLabelPosition=middle;align=left;verticalAlign=top;labelBorderColor=none;spacingLeft=5;" parent="1" vertex="1">
            <mxGeometry x="70" y="60" width="570" height="220" as="geometry" />
          </mxCell>
        </UserObject>
        <mxCell id="Vf2kTsaKdGU_a6W1L_Ca-4" value="See, which nutrients are missing" style="ellipse;whiteSpace=wrap;html=1;align=center;fillColor=#e1d5e7;strokeColor=#9673a6;" parent="1" vertex="1">
          <mxGeometry x="80" y="110" width="140" height="70" as="geometry" />
        </mxCell>
        <UserObject label="Recipes" id="Vf2kTsaKdGU_a6W1L_Ca-5">
          <mxCell style="shape=folder;fontStyle=1;spacingTop=10;tabWidth=130;tabHeight=40;tabPosition=left;html=1;labelPosition=center;verticalLabelPosition=middle;align=left;verticalAlign=top;labelBorderColor=none;spacingLeft=5;" parent="1" vertex="1">
            <mxGeometry x="70" y="300" width="570" height="390" as="geometry" />
          </mxCell>
        </UserObject>
        <mxCell id="Vf2kTsaKdGU_a6W1L_Ca-6" value="Keep track of, how much you have been drinking over the day" style="ellipse;whiteSpace=wrap;html=1;align=center;fillColor=#d5e8d4;strokeColor=#82b366;" parent="1" vertex="1">
          <mxGeometry x="245" y="100" width="200" height="90" as="geometry" />
        </mxCell>
        <mxCell id="Vf2kTsaKdGU_a6W1L_Ca-7" value="Look at statistics, how you improved your health" style="ellipse;whiteSpace=wrap;html=1;align=center;fillColor=#e1d5e7;strokeColor=#9673a6;" parent="1" vertex="1">
          <mxGeometry x="480" y="105" width="150" height="80" as="geometry" />
        </mxCell>
        <UserObject label="Settings" id="Vf2kTsaKdGU_a6W1L_Ca-8">
          <mxCell style="shape=folder;fontStyle=1;spacingTop=10;tabWidth=130;tabHeight=40;tabPosition=left;html=1;labelPosition=center;verticalLabelPosition=middle;align=left;verticalAlign=top;labelBorderColor=none;spacingLeft=5;" parent="1" vertex="1">
            <mxGeometry x="80" y="740" width="550" height="250" as="geometry" />
          </mxCell>
        </UserObject>
        <mxCell id="Vf2kTsaKdGU_a6W1L_Ca-9" value="Calculate the daily calory and nutrient demand" style="ellipse;whiteSpace=wrap;html=1;align=center;fillColor=#d5e8d4;strokeColor=#82b366;" parent="1" vertex="1">
          <mxGeometry x="100" y="790" width="140" height="70" as="geometry" />
        </mxCell>
        <mxCell id="Vf2kTsaKdGU_a6W1L_Ca-10" value="Set the aims you want to reach" style="ellipse;whiteSpace=wrap;html=1;align=center;fillColor=#d5e8d4;strokeColor=#82b366;" parent="1" vertex="1">
          <mxGeometry x="285" y="790" width="140" height="70" as="geometry" />
        </mxCell>
        <mxCell id="Vf2kTsaKdGU_a6W1L_Ca-11" value="Set the ingredients you do not like" style="ellipse;whiteSpace=wrap;html=1;align=center;fillColor=#d5e8d4;strokeColor=#82b366;" parent="1" vertex="1">
          <mxGeometry x="100" y="880" width="140" height="70" as="geometry" />
        </mxCell>
        <mxCell id="Vf2kTsaKdGU_a6W1L_Ca-12" value="Local Phone Storage&lt;br&gt;" style="shape=umlActor;verticalLabelPosition=bottom;verticalAlign=top;html=1;outlineConnect=0;" parent="1" vertex="1">
          <mxGeometry x="734" y="473" width="30" height="77" as="geometry" />
        </mxCell>
        <UserObject label="Localbased" id="Vf2kTsaKdGU_a6W1L_Ca-13">
          <mxCell style="shape=folder;fontStyle=1;spacingTop=10;tabWidth=130;tabHeight=40;tabPosition=left;html=1;labelPosition=center;verticalLabelPosition=middle;align=left;verticalAlign=top;labelBorderColor=none;spacingLeft=5;" parent="1" vertex="1">
            <mxGeometry x="80" y="350" width="180" height="320" as="geometry" />
          </mxCell>
        </UserObject>
        <mxCell id="Vf2kTsaKdGU_a6W1L_Ca-14" value="Look at local recipes" style="ellipse;whiteSpace=wrap;html=1;align=center;fillColor=#d5e8d4;strokeColor=#82b366;" parent="1" vertex="1">
          <mxGeometry x="100" y="400" width="140" height="70" as="geometry" />
        </mxCell>
        <mxCell id="Vf2kTsaKdGU_a6W1L_Ca-15" value="Create/Update/Delete own recipes" style="ellipse;whiteSpace=wrap;html=1;align=center;fillColor=#d5e8d4;strokeColor=#82b366;" parent="1" vertex="1">
          <mxGeometry x="100" y="476.5" width="140" height="70" as="geometry" />
        </mxCell>
        <UserObject label="Cloudbased" id="Vf2kTsaKdGU_a6W1L_Ca-16">
          <mxCell style="shape=folder;fontStyle=1;spacingTop=10;tabWidth=130;tabHeight=40;tabPosition=left;html=1;labelPosition=center;verticalLabelPosition=middle;align=left;verticalAlign=top;labelBorderColor=none;spacingLeft=5;" parent="1" vertex="1">
            <mxGeometry x="450" y="350" width="180" height="320" as="geometry" />
          </mxCell>
        </UserObject>
        <UserObject label="General" id="Vf2kTsaKdGU_a6W1L_Ca-17">
          <mxCell style="shape=folder;fontStyle=1;spacingTop=10;tabWidth=130;tabHeight=40;tabPosition=left;html=1;labelPosition=center;verticalLabelPosition=middle;align=left;verticalAlign=top;labelBorderColor=none;spacingLeft=5;" parent="1" vertex="1">
            <mxGeometry x="265" y="350" width="180" height="320" as="geometry" />
          </mxCell>
        </UserObject>
        <mxCell id="Vf2kTsaKdGU_a6W1L_Ca-18" value="Get recommendations, what you can eat next" style="ellipse;whiteSpace=wrap;html=1;align=center;fillColor=#ffe6cc;strokeColor=#d79b00;" parent="1" vertex="1">
          <mxGeometry x="285" y="400" width="140" height="70" as="geometry" />
        </mxCell>
        <mxCell id="Vf2kTsaKdGU_a6W1L_Ca-19" value="Like / dislike dishes&lt;br&gt;/ save to the favorites" style="ellipse;whiteSpace=wrap;html=1;align=center;fillColor=#ffe6cc;strokeColor=#d79b00;" parent="1" vertex="1">
          <mxGeometry x="470" y="480" width="140" height="70" as="geometry" />
        </mxCell>
        <mxCell id="Vf2kTsaKdGU_a6W1L_Ca-20" value="Look at cloud recipes" style="ellipse;whiteSpace=wrap;html=1;align=center;fillColor=#ffe6cc;strokeColor=#d79b00;" parent="1" vertex="1">
          <mxGeometry x="470" y="400" width="140" height="70" as="geometry" />
        </mxCell>
        <mxCell id="Vf2kTsaKdGU_a6W1L_Ca-21" value="" style="group" parent="1" vertex="1" connectable="0">
          <mxGeometry x="711" y="270" width="81" height="90" as="geometry" />
        </mxCell>
        <mxCell id="Vf2kTsaKdGU_a6W1L_Ca-22" value="" style="aspect=fixed;html=1;points=[];align=center;image;fontSize=12;image=img/lib/azure2/app_services/App_Service_Plans.svg;gradientColor=none;" parent="Vf2kTsaKdGU_a6W1L_Ca-21" vertex="1">
          <mxGeometry x="17" width="64" height="64" as="geometry" />
        </mxCell>
        <mxCell id="Vf2kTsaKdGU_a6W1L_Ca-23" value="API" style="text;align=center;fontStyle=1;verticalAlign=middle;spacingLeft=3;spacingRight=3;strokeColor=none;rotatable=0;points=[[0,0.5],[1,0.5]];portConstraint=eastwest;" parent="Vf2kTsaKdGU_a6W1L_Ca-21" vertex="1">
          <mxGeometry y="64" width="68" height="26" as="geometry" />
        </mxCell>
        <mxCell id="Vf2kTsaKdGU_a6W1L_Ca-24" value="" style="endArrow=none;html=1;entryX=0.103;entryY=0.489;entryDx=0;entryDy=0;entryPerimeter=0;exitX=0;exitY=0;exitDx=65;exitDy=0;exitPerimeter=0;" parent="1" source="Vf2kTsaKdGU_a6W1L_Ca-17" target="Vf2kTsaKdGU_a6W1L_Ca-22" edge="1">
          <mxGeometry width="50" height="50" relative="1" as="geometry">
            <mxPoint x="680" y="470" as="sourcePoint" />
            <mxPoint x="730" y="420" as="targetPoint" />
            <Array as="points">
              <mxPoint x="330" y="301" />
            </Array>
          </mxGeometry>
        </mxCell>
        <mxCell id="Vf2kTsaKdGU_a6W1L_Ca-25" value="" style="endArrow=none;html=1;exitX=0.451;exitY=0.001;exitDx=0;exitDy=0;exitPerimeter=0;" parent="1" source="Vf2kTsaKdGU_a6W1L_Ca-16" edge="1">
          <mxGeometry width="50" height="50" relative="1" as="geometry">
            <mxPoint x="730" y="450" as="sourcePoint" />
            <mxPoint x="530" y="300" as="targetPoint" />
          </mxGeometry>
        </mxCell>
        <mxCell id="Vf2kTsaKdGU_a6W1L_Ca-26" value="Share own recipes" style="ellipse;whiteSpace=wrap;html=1;fillColor=#e1d5e7;strokeColor=#9673a6;" parent="1" vertex="1">
          <mxGeometry x="480" y="570" width="120" height="80" as="geometry" />
        </mxCell>
        <mxCell id="Vf2kTsaKdGU_a6W1L_Ca-27" value="" style="endArrow=none;html=1;exitX=0.5;exitY=0.5;exitDx=0;exitDy=0;exitPerimeter=0;entryX=-0.065;entryY=0.487;entryDx=0;entryDy=0;entryPerimeter=0;" parent="1" source="Vf2kTsaKdGU_a6W1L_Ca-2" target="Vf2kTsaKdGU_a6W1L_Ca-13" edge="1">
          <mxGeometry width="50" height="50" relative="1" as="geometry">
            <mxPoint x="-10" y="530" as="sourcePoint" />
            <mxPoint x="40" y="480" as="targetPoint" />
          </mxGeometry>
        </mxCell>
        <mxCell id="Vf2kTsaKdGU_a6W1L_Ca-28" value="" style="endArrow=none;html=1;exitX=0.5;exitY=1;exitDx=0;exitDy=0;exitPerimeter=0;" parent="1" source="Vf2kTsaKdGU_a6W1L_Ca-13" edge="1">
          <mxGeometry width="50" height="50" relative="1" as="geometry">
            <mxPoint x="720" y="770" as="sourcePoint" />
            <mxPoint x="680" y="720" as="targetPoint" />
            <Array as="points">
              <mxPoint x="170" y="720" />
            </Array>
          </mxGeometry>
        </mxCell>
        <mxCell id="Vf2kTsaKdGU_a6W1L_Ca-29" value="" style="endArrow=none;html=1;exitX=0;exitY=0;exitDx=550;exitDy=145;exitPerimeter=0;" parent="1" source="Vf2kTsaKdGU_a6W1L_Ca-8" edge="1">
          <mxGeometry width="50" height="50" relative="1" as="geometry">
            <mxPoint x="700" y="900" as="sourcePoint" />
            <mxPoint x="680" y="510" as="targetPoint" />
            <Array as="points">
              <mxPoint x="680" y="885" />
            </Array>
          </mxGeometry>
        </mxCell>
        <mxCell id="Vf2kTsaKdGU_a6W1L_Ca-30" value="" style="endArrow=none;html=1;entryX=0.5;entryY=0.5;entryDx=0;entryDy=0;entryPerimeter=0;" parent="1" target="Vf2kTsaKdGU_a6W1L_Ca-12" edge="1">
          <mxGeometry width="50" height="50" relative="1" as="geometry">
            <mxPoint x="680" y="512" as="sourcePoint" />
            <mxPoint x="730" y="470" as="targetPoint" />
          </mxGeometry>
        </mxCell>
        <mxCell id="Vf2kTsaKdGU_a6W1L_Ca-31" value="" style="endArrow=none;html=1;entryX=0;entryY=0;entryDx=570;entryDy=175;entryPerimeter=0;" parent="1" target="Vf2kTsaKdGU_a6W1L_Ca-3" edge="1">
          <mxGeometry width="50" height="50" relative="1" as="geometry">
            <mxPoint x="680" y="510" as="sourcePoint" />
            <mxPoint x="740" y="410" as="targetPoint" />
            <Array as="points">
              <mxPoint x="680" y="235" />
            </Array>
          </mxGeometry>
        </mxCell>
        <mxCell id="Vf2kTsaKdGU_a6W1L_Ca-32" value="" style="endArrow=none;html=1;" parent="1" edge="1">
          <mxGeometry width="50" height="50" relative="1" as="geometry">
            <mxPoint x="360" y="720" as="sourcePoint" />
            <mxPoint x="360" y="670" as="targetPoint" />
          </mxGeometry>
        </mxCell>
        <mxCell id="JNxSTNv7pG_01Bq82V31-1" value="Until June/July 2021" style="ellipse;whiteSpace=wrap;html=1;align=center;fillColor=#ffe6cc;strokeColor=#d79b00;" parent="1" vertex="1">
          <mxGeometry x="-100" y="630" width="150" height="80" as="geometry" />
        </mxCell>
        <mxCell id="JNxSTNv7pG_01Bq82V31-4" value="Until December 2020" style="ellipse;whiteSpace=wrap;html=1;align=center;fillColor=#d5e8d4;strokeColor=#82b366;" parent="1" vertex="1">
          <mxGeometry x="-100" y="710" width="150" height="80" as="geometry" />
        </mxCell>
        <mxCell id="vr3MoE8LkvOcCMQxQlOR-1" value="Optional" style="ellipse;whiteSpace=wrap;html=1;align=center;fillColor=#e1d5e7;strokeColor=#9673a6;" parent="1" vertex="1">
          <mxGeometry x="-100" y="790" width="150" height="80" as="geometry" />
        </mxCell>
      </root>
    </mxGraphModel>
  </diagram>
</mxfile>
